<?xml version="1.0" encoding="UTF-8"?>
<svg version="1.1" xmlns="http://www.w3.org/2000/svg" width="1024" height="343">
<path d="M0 0 C-0.99 0.99 -0.99 0.99 -2 2 C-2.87398437 1.46632812 -3.74796875 0.93265625 -4.6484375 0.3828125 C-41.20572524 -21.8231401 -88.41981506 -49.43782962 -132.859375 -38.92578125 C-136.94869997 -37.7203459 -140.30532757 -36.12101566 -144 -34 C-144.68835938 -33.71253906 -145.37671875 -33.42507812 -146.0859375 -33.12890625 C-148.4768474 -31.71875735 -148.95106371 -30.53609486 -150 -28 C-150.34160156 -27.34 -150.68320313 -26.68 -151.03515625 -26 C-151.37417969 -25.34 -151.71320313 -24.68 -152.0625 -24 C-152.40410156 -23.34 -152.74570313 -22.68 -153.09765625 -22 C-158.22991186 -10.62461095 -154.31717329 2.82681129 -150.30078125 13.93359375 C-142.56067999 34.28719337 -129.68425969 51.86427613 -115.0390625 67.77734375 C-113.18749705 69.79562103 -111.40167 71.85349135 -109.625 73.9375 C-102.68356009 81.89358194 -95.03636672 89.16559422 -87 96 C-86.04222656 96.84691406 -85.08445312 97.69382813 -84.09765625 98.56640625 C-69.10022893 111.76792316 -53.01146443 123.53328036 -36 134 C-35.34032227 134.41024414 -34.68064453 134.82048828 -34.00097656 135.24316406 C-8.9643695 150.7361747 18.12492018 163.71037865 47 170 C48.10988281 170.24492187 49.21976563 170.48984375 50.36328125 170.7421875 C65.2508341 173.5040461 83.54729082 174.39724259 96.875 166.3125 C102.87939288 161.9209023 107.31961019 156.33261009 109 149 C109.41207772 146.33361477 109.72215525 143.68583261 110 141 C110.66 141.33 111.32 141.66 112 142 C112.54376834 154.88428881 112.51413252 165.06692704 103.75 175.375 C92.58877223 186.77063159 79.10424942 189.37762889 63.5625 189.5625 C29.31524409 189.24644629 -3.09870019 175.57855386 -33 160 C-33.8863916 159.54093262 -34.7727832 159.08186523 -35.68603516 158.60888672 C-58.23331614 146.82043706 -79.28421608 132.03705319 -99 116 C-99.54076172 115.56510254 -100.08152344 115.13020508 -100.63867188 114.68212891 C-110.29229753 106.85666586 -119.07694822 98.13225619 -127.875 89.375 C-128.45704193 88.7982251 -129.03908386 88.2214502 -129.63876343 87.62719727 C-136.9062554 80.41056813 -143.67578403 73.06957886 -150 65 C-150.88035427 63.91572693 -151.76164539 62.83221268 -152.64453125 61.75 C-171.72141756 37.55157124 -187.6777143 9.65909021 -186 -22 C-184.55718545 -31.2315677 -179.9347719 -38.82418552 -172.8125 -44.8125 C-124.24108937 -79.90087691 -39.9080991 -26.63565737 0 0 Z " fill="#3579AA" transform="translate(207,96)"/>
<path d="M0 0 C8.05532375 7.09528517 11.24446314 15.28327282 12.01953125 25.8125 C12 28 12 28 11 29 C6.54953548 29.33735051 2.0866052 29.32502275 -2.375 29.375 C-4.2621875 29.43107422 -4.2621875 29.43107422 -6.1875 29.48828125 C-7.99347656 29.50568359 -7.99347656 29.50568359 -9.8359375 29.5234375 C-11.49955322 29.5531665 -11.49955322 29.5531665 -13.19677734 29.58349609 C-16 29 -16 29 -17.79150391 26.60400391 C-18.19030762 25.74468262 -18.58911133 24.88536133 -19 24 C-21.48882288 20.37046664 -24.03479429 19.51235179 -28.1875 18.5625 C-34.97518985 17.53708696 -39.9403908 18.91051079 -45.5625 22.75 C-47.62516372 25.97851713 -47.47696455 28.25242138 -47 32 C-42.28890591 38.22163538 -30.69021574 38.2425238 -23.49169922 39.4309082 C2.15595855 43.68501611 2.15595855 43.68501611 11 54 C16.27167676 61.84180171 16.68913727 71.48933831 15.4375 80.625 C13.36789876 90.13694212 7.91314328 97.47493031 0 103 C-14.30984922 111.87113964 -32.2620012 113.44538305 -48.5625 109.875 C-54.50411636 108.08747982 -59.78858068 105.33959624 -65 102 C-65.6703125 101.57074219 -66.340625 101.14148438 -67.03125 100.69921875 C-73.2563734 96.07133096 -77.79500459 87.65031972 -79 80 C-79 77.36 -79 74.72 -79 72 C-69.43 72 -59.86 72 -50 72 C-48.02 75.465 -48.02 75.465 -46 79 C-39.01322962 82.93799785 -30.49243612 83.2956516 -22.71484375 81.4609375 C-19.18835919 80.09826194 -16.6229458 78.44875983 -15 75 C-14.83789781 72.39351495 -14.83789781 72.39351495 -16 70 C-19.82361699 67.17569273 -23.18144113 66.42077883 -27.84765625 65.7890625 C-29.18948457 65.59396616 -30.53128039 65.3986462 -31.87304688 65.203125 C-33.95627764 64.91299636 -36.04005572 64.6280078 -38.12475586 64.34863281 C-49.60052926 62.78693033 -61.68209517 60.72365628 -70 52 C-77.51651197 42.04114801 -78.12508029 31.05242266 -77 19 C-76.17654948 15.27107918 -74.95187061 12.27135947 -73 9 C-72.36384766 7.92878906 -72.36384766 7.92878906 -71.71484375 6.8359375 C-65.04507768 -3.08510729 -54.84951384 -6.80227305 -43.640625 -9.5859375 C-28.12645032 -12.01863353 -12.99769396 -9.00480238 0 0 Z " fill="#31648B" transform="translate(275,122)"/>
<path d="M0 0 C4.37055446 -1.26646749 7.62155703 -1.29646204 12 0 C18.19117239 4.70493289 23.04243897 11.06392168 28 17 C32.08909518 21.7401008 36.25195865 26.40211996 40.5 31 C47.01175812 38.0862262 47.01175812 38.0862262 50.0625 41.5 C50.58972656 42.0878125 51.11695313 42.675625 51.66015625 43.28125 C53.07468301 45.09580328 54.04336604 46.91279864 55 49 C59.36666796 45.43537309 63.14722128 41.81500612 66.79296875 37.52734375 C69.74117752 34.15125336 72.80764282 30.89268431 75.875 27.625 C79.88853017 23.34256541 83.88865945 19.05268641 87.8125 14.6875 C88.864375 13.53701172 88.864375 13.53701172 89.9375 12.36328125 C92.07424956 9.9735609 92.07424956 9.9735609 94.125 7.16796875 C94.846875 6.24628906 95.56875 5.32460937 96.3125 4.375 C96.92738281 3.53710938 97.54226562 2.69921875 98.17578125 1.8359375 C101 0 101 0 113 0 C113 38.61 113 77.22 113 117 C105.12410842 117 105.12410842 117 102.3515625 115.2421875 C101.73796875 114.86320312 101.124375 114.48421875 100.4921875 114.09375 C99.87601562 113.6915625 99.25984375 113.289375 98.625 112.875 C98.0165625 112.49601562 97.408125 112.11703125 96.78125 111.7265625 C95.5158776 110.93239572 94.26618078 110.11279334 93.03198242 109.27099609 C90.99304099 107.92096613 90.99304099 107.92096613 88.5559082 106.96728516 C85.67371257 105.58111484 84.01136334 104.50876806 82 102 C80.7234614 96.20225842 80.82970038 90.53531015 80.9375 84.625 C80.93442307 83.01430993 80.92730296 81.4036222 80.91601562 79.79296875 C80.8972338 75.86046325 80.93369547 71.93195402 81 68 C79.25230826 69.7340925 77.50650906 71.47002336 75.76171875 73.20703125 C75.27215698 73.69240356 74.78259521 74.17777588 74.27819824 74.67785645 C70.32227073 78.62058103 66.59192781 82.72156039 63 87 C58.80686525 84.6696147 55.2322176 81.8212287 51.625 78.6875 C51.01922119 78.16333496 50.41344238 77.63916992 49.78930664 77.09912109 C33.84395828 63.20602275 18.92821753 48.60740139 6.23046875 31.64111328 C5.37321397 30.49776673 4.49942904 29.36670724 3.61328125 28.24560547 C-1.35745905 21.75266497 -1.14340514 16.00394334 -0.5625 8.125 C-0.51029297 7.34125 -0.45808594 6.5575 -0.40429688 5.75 C-0.27571149 3.8329088 -0.13871383 1.91638497 0 0 Z " fill="#2D516E" transform="translate(77,114)"/>
<path d="M0 0 C1.09248047 -0.01224609 2.18496094 -0.02449219 3.31054688 -0.03710938 C4.35662109 -0.03904297 5.40269531 -0.04097656 6.48046875 -0.04296875 C7.43203857 -0.04707764 8.3836084 -0.05118652 9.36401367 -0.05541992 C11.8125 0.1875 11.8125 0.1875 14.8125 2.1875 C14.22984375 2.1968457 13.6471875 2.20619141 13.046875 2.21582031 C-5.9492034 2.59663792 -23.7842405 3.82780833 -38.40234375 17.3125 C-46.6818622 26.00871194 -49.15868186 37.45851646 -49.1875 49.1875 C-48.2363164 66.35016056 -41.39287394 82.32236272 -33.1875 97.1875 C-32.84879883 97.80689453 -32.51009766 98.42628906 -32.16113281 99.06445312 C-26.17884137 109.87007357 -18.93021728 119.58690215 -11.1875 129.1875 C-10.71989258 129.77370117 -10.25228516 130.35990234 -9.77050781 130.96386719 C-2.01539334 140.59494888 6.72705203 149.30665594 15.4375 158.0625 C16.01445618 158.64481384 16.59141235 159.22712769 17.18585205 159.8270874 C24.40634609 167.09834513 31.77026113 173.82389081 39.8125 180.1875 C40.85220516 181.06210176 41.88733778 181.94222712 42.9140625 182.83203125 C60.78678937 198.18708297 81.02666285 210.90611992 101.73242188 222.05712891 C103.60071533 223.07241045 105.45087745 224.11288382 107.296875 225.16796875 C141.86430714 244.48272058 187.8534033 262.85182484 227.8125 252.1875 C239.6598555 248.35989284 248.94700283 242.40762846 254.8125 231.1875 C257.44049817 225.10891886 258.66005524 218.6818652 259.8125 212.1875 C260.1425 212.1875 260.4725 212.1875 260.8125 212.1875 C261.59737982 223.06680646 259.69885447 233.88602027 252.49609375 242.41796875 C240.56834328 254.95456031 225.50253745 259.61815735 208.3828125 260.1796875 C147.34788704 260.90661427 89.93902191 226.77695246 42.8125 191.1875 C42.8125 192.8375 42.8125 194.4875 42.8125 196.1875 C32.5825 196.1875 22.3525 196.1875 11.8125 196.1875 C11.82152344 193.9703125 11.83054687 191.753125 11.83984375 189.46875 C11.82478392 187.29733294 11.79783607 185.12636162 11.76977539 182.95507812 C11.7567172 181.45773909 11.75582639 179.96023855 11.76782227 178.46289062 C12.07000994 168.30384368 12.07000994 168.30384368 7.62109375 159.51953125 C6.38153843 158.37549637 5.11290887 157.26186025 3.8125 156.1875 C2.80714633 155.1889382 1.8091823 154.18285702 0.8203125 153.16796875 C-0.13966053 152.2359847 -1.1006098 151.30500523 -2.0625 150.375 C-7.54803798 144.96898736 -12.42652344 139.24543224 -17.1875 133.1875 C-18.04509455 132.1417665 -18.90454411 131.09755214 -19.765625 130.0546875 C-40.56714415 104.6193523 -58.56344828 73.03562466 -56.1875 39.1875 C-54.11323061 27.10525933 -48.70797692 16.98533777 -38.90234375 9.42578125 C-27.0034424 1.74470184 -13.83713459 0.00825112 0 0 Z " fill="#357CB0" transform="translate(65.1875,34.8125)"/>
<path d="M0 0 C7.23662341 5.02377162 11.1519135 10.57754463 12.890625 19.3125 C14.01097287 30.20946844 13.42406978 40.21998972 7.328125 49.5625 C3.18641319 54.58884929 -1.5324757 57.6516337 -8.06396484 58.59472656 C-17.16281567 59.42894509 -25.60907904 59.08307654 -33.109375 53.3125 C-38.04866694 48.86924806 -41.6271607 43.52435979 -42.39526367 36.81542969 C-42.51203244 33.99575512 -42.5186706 31.1967659 -42.484375 28.375 C-42.49597656 27.42431641 -42.50757813 26.47363281 -42.51953125 25.49414062 C-42.48486902 17.11165763 -40.83559416 10.17459016 -34.94140625 3.921875 C-25.73862542 -4.16244419 -10.92377469 -6.0039067 0 0 Z M-26.21875 16.9609375 C-28.44324986 20.90436907 -28.61542532 23.31559875 -28.546875 27.8125 C-28.54558594 29.0809375 -28.54429687 30.349375 -28.54296875 31.65625 C-27.97746364 36.42483362 -26.63721705 39.88014808 -23.109375 43.1875 C-18.43652003 44.93982061 -14.02890719 45.07711937 -9.109375 44.3125 C-5.49604884 42.64151518 -3.58225598 40.21527279 -1.734375 36.6875 C-0.34010936 29.15846556 -0.02791357 21.978887 -4.109375 15.3125 C-7.50037612 12.16371325 -10.13397042 11.05621416 -14.671875 10.875 C-20.08099194 11.15634669 -22.82202496 12.69616051 -26.21875 16.9609375 Z " fill="#31648B" transform="translate(870.109375,143.6875)"/>
<path d="M0 0 C6.37436081 3.78376898 11.02872784 8.97808323 13.4375 16 C13.87247735 20.09573215 13.80773814 24.19587147 13.8125 28.3125 C13.83699219 29.41529297 13.86148438 30.51808594 13.88671875 31.65429688 C13.91543789 39.67172276 12.59418853 44.8425897 7.76171875 51.20703125 C7.22160156 51.73683594 6.68148437 52.26664063 6.125 52.8125 C5.59261719 53.35519531 5.06023437 53.89789063 4.51171875 54.45703125 C-1.24873881 58.74211738 -6.52586718 59.50223879 -13.5 59.4375 C-14.25990234 59.45748047 -15.01980469 59.47746094 -15.80273438 59.49804688 C-22.74920039 59.49211479 -27.82894387 57.42548869 -33.0234375 52.81640625 C-33.65507812 52.07261719 -34.28671875 51.32882813 -34.9375 50.5625 C-35.58460938 49.82128906 -36.23171875 49.08007812 -36.8984375 48.31640625 C-41.20157074 42.32636397 -40.96098909 36.42548869 -41 29.3125 C-41.03287109 28.27416016 -41.06574219 27.23582031 -41.09960938 26.16601562 C-41.15588385 18.0062171 -39.43641224 11.22398077 -33.80639648 5.08520508 C-24.91415613 -3.27867715 -11.0858891 -5.03285763 0 0 Z M-25.5625 18 C-27.17532972 21.22565944 -26.83037069 24.70940808 -26.875 28.25 C-26.90400391 29.00152344 -26.93300781 29.75304687 -26.96289062 30.52734375 C-27.02285672 35.81358573 -26.14313989 38.86125687 -22.5625 43 C-18.35680916 45.92202617 -13.48368162 45.63649352 -8.5625 45 C-4.4714458 42.9544729 -2.12421107 41.29118808 -0.5625 37 C-0.3178665 34.16111358 -0.1923755 31.46254244 -0.1875 28.625 C-0.16300781 27.8825 -0.13851562 27.14 -0.11328125 26.375 C-0.08553485 21.14017885 -1.03331217 18.09881113 -4.5625 14 C-11.99423494 8.8767198 -20.15735577 11.61961568 -25.5625 18 Z " fill="#31648B" transform="translate(433.5625,143)"/>
<path d="M0 0 C4.1632304 -0.06913113 8.32444445 -0.1287798 12.48779297 -0.16479492 C13.90192437 -0.17981825 15.31600968 -0.20024305 16.72998047 -0.22631836 C18.77062397 -0.26298954 20.81064792 -0.27979036 22.8515625 -0.29296875 C24.07697754 -0.3086792 25.30239258 -0.32438965 26.56494141 -0.34057617 C32.94211042 0.29170178 36.84911987 3.28819013 41 8 C44.89986396 13.71051509 45.78433055 19.18068159 45 26 C43.31986127 31.71612416 41.13583637 35.71877121 36 39 C36.53274437 44.00779703 38.93061859 47.53210991 41.5625 51.6875 C46 58.75113809 46 58.75113809 46 61 C40.39 61 34.78 61 29 61 C28.33613281 59.71222656 27.67226563 58.42445313 26.98828125 57.09765625 C26.09726213 55.41878864 25.20528499 53.74042923 24.3125 52.0625 C23.65991211 50.78729492 23.65991211 50.78729492 22.99414062 49.48632812 C22.55908203 48.67744141 22.12402344 47.86855469 21.67578125 47.03515625 C21.0866394 45.91185913 21.0866394 45.91185913 20.4855957 44.76586914 C18.83004371 42.42511528 18.83004371 42.42511528 14 42 C14 48.27 14 54.54 14 61 C9.38 61 4.76 61 0 61 C0 50.11 0 39.22 0 28 C13.3125 27.8125 13.3125 27.8125 17.5012207 27.79223633 C18.59007568 27.76411865 19.67893066 27.73600098 20.80078125 27.70703125 C21.91622314 27.6913208 23.03166504 27.67561035 24.1809082 27.65942383 C27.18544371 27.25710112 27.18544371 27.25710112 28.93041992 24.65893555 C30.30547864 21.95367132 30.30547864 21.95367132 29.3125 18.75 C28.29371967 15.89078673 28.29371967 15.89078673 26 15 C24.04225931 14.84621148 22.07982648 14.75028537 20.1171875 14.68359375 C18.95058594 14.64169922 17.78398437 14.59980469 16.58203125 14.55664062 C15.35871094 14.51732422 14.13539063 14.47800781 12.875 14.4375 C11.64394531 14.39431641 10.41289062 14.35113281 9.14453125 14.30664062 C6.09649488 14.20031377 3.04826261 14.09963028 0 14 C0 9.38 0 4.76 0 0 Z " fill="#293F52" transform="translate(453,141)"/>
<path d="M0 0 C4.62 0 9.24 0 14 0 C14.01458252 1.08941895 14.02916504 2.17883789 14.04418945 3.30126953 C14.10236072 7.36067785 14.17959182 11.41954237 14.26245117 15.47851562 C14.2956122 17.23200627 14.32367142 18.98560138 14.34643555 20.73925781 C14.3801447 23.26672698 14.43246692 25.79324638 14.48828125 28.3203125 C14.49467117 29.09867462 14.5010611 29.87703674 14.50764465 30.6789856 C14.65828549 36.31305252 15.83118181 40.49751747 19.625 44.875 C23.37333785 46.65052846 26.9356332 46.65320181 31 46 C35.11907058 43.63372541 36.61603469 41.46191321 38 37 C38.23234569 34.1113346 38.37144713 31.30858773 38.4140625 28.41796875 C38.43342865 27.60378983 38.4527948 26.7896109 38.4727478 25.95075989 C38.53228752 23.36311148 38.57882583 20.77541797 38.625 18.1875 C38.6632034 16.42771551 38.7022565 14.66794926 38.7421875 12.90820312 C38.83796782 8.60561766 38.92209285 4.3029447 39 0 C43.62 0 48.24 0 53 0 C53.07453648 5.55010083 53.12878399 11.09990586 53.16479492 16.65039062 C53.17981793 18.53585897 53.20024231 20.42129275 53.22631836 22.30664062 C53.26298863 25.0274309 53.27979146 27.74775641 53.29296875 30.46875 C53.30845261 31.30241089 53.32393646 32.13607178 53.33988953 32.99499512 C53.34218372 41.09707402 50.97114074 47.81785157 45.8359375 54.16796875 C40.25138516 59.74063906 34.26295779 61.32732856 26.5 61.625 C18.93948923 61.35007234 13.05875487 59.66565513 7.38671875 54.54296875 C2.61236153 49.20526554 -0.1360764 43.000141 -0.11352539 35.87402344 C-0.11344986 35.07349548 -0.11337433 34.27296753 -0.11329651 33.44818115 C-0.10813522 32.59387512 -0.10297394 31.73956909 -0.09765625 30.859375 C-0.0962413 29.97719299 -0.09482635 29.09501099 -0.09336853 28.18609619 C-0.08778001 25.37402935 -0.07522961 22.5620427 -0.0625 19.75 C-0.05748352 17.84114698 -0.05292087 15.93229272 -0.04882812 14.0234375 C-0.03781434 9.34892753 -0.02055758 4.67447735 0 0 Z " fill="#283A4A" transform="translate(661,141)"/>
<path d="M0 0 C4.62 0 9.24 0 14 0 C14 20.13 14 40.26 14 61 C9.38 61 4.76 61 0 61 C0 53.41 0 45.82 0 38 C-6.6 38 -13.2 38 -20 38 C-20 45.59 -20 53.18 -20 61 C-24.62 61 -29.24 61 -34 61 C-34 48.79 -34 36.58 -34 24 C-22.78 24 -11.56 24 0 24 C0 16.08 0 8.16 0 0 Z " fill="#293C4D" transform="translate(589,141)"/>
<path d="M0 0 C3.98431666 -0.09241972 7.96586315 -0.1718666 11.95068359 -0.21972656 C13.96347627 -0.24946045 15.97592134 -0.30031729 17.98828125 -0.3515625 C26.62032214 -0.43831668 32.22530198 0.04566515 39.0234375 5.67578125 C43.90105441 11.58249074 45.67862337 17.26369354 45 25 C43.593655 31.45640203 40.25901761 36.02890507 35 40 C30.67004312 42.32974671 26.48135297 42.23551829 21.6875 42.125 C17.8821875 42.063125 17.8821875 42.063125 14 42 C14 48.27 14 54.54 14 61 C9.38 61 4.76 61 0 61 C0 50.11 0 39.22 0 28 C12.8125 27.625 12.8125 27.625 16.84301758 27.52197266 C17.89126709 27.4863623 18.9395166 27.45075195 20.01953125 27.4140625 C21.09307861 27.3826416 22.16662598 27.3512207 23.27270508 27.31884766 C26.2160765 27.18407693 26.2160765 27.18407693 29 25 C30.20394595 22.31427441 30.04800316 21.15877968 29.1875 18.3125 C28.21728135 15.86223915 28.21728135 15.86223915 26 15 C24.04225931 14.84621148 22.07982648 14.75028537 20.1171875 14.68359375 C18.95058594 14.64169922 17.78398438 14.59980469 16.58203125 14.55664062 C15.35871094 14.51732422 14.13539063 14.47800781 12.875 14.4375 C11.64394531 14.39431641 10.41289063 14.35113281 9.14453125 14.30664062 C6.09649488 14.20031377 3.04826261 14.09963028 0 14 C0 9.38 0 4.76 0 0 Z " fill="#2A4358" transform="translate(503,141)"/>
<path d="M0 0 C4.62 0 9.24 0 14 0 C19.83267265 13.22987396 25.51888763 26.51835653 31.09762573 39.85705566 C31.78336679 41.49599004 32.47032076 43.13441744 33.15847778 44.77233887 C34.13276843 47.09280205 35.10224305 49.41521696 36.0703125 51.73828125 C36.36672134 52.44251724 36.66313019 53.14675323 36.96852112 53.87232971 C39 58.77086396 39 58.77086396 39 61 C34.05 61 29.1 61 24 61 C20.58639841 54.32451244 17.64409156 48.05091082 15 41 C14.67 47.6 14.34 54.2 14 61 C9.38 61 4.76 61 0 61 C0 40.87 0 20.74 0 0 Z " fill="#388AC6" transform="translate(325,141)"/>
<path d="M0 0 C0 4.62 0 9.24 0 14 C-1.22976563 14.03738281 -2.45953125 14.07476562 -3.7265625 14.11328125 C-5.35940401 14.17897028 -6.99221518 14.24541659 -8.625 14.3125 C-9.43324219 14.33505859 -10.24148438 14.35761719 -11.07421875 14.38085938 C-17.60027938 14.67267509 -21.87419089 16.0631517 -26.8125 20.5625 C-29.90506012 24.60893418 -30.37674353 29.01775908 -30 34 C-28.7382644 38.81603652 -27.03078036 41.25974847 -22.96484375 44.1796875 C-18.47739569 46.59979203 -14.07262242 46.66618046 -9.0625 46.75 C-7.75055664 46.79447266 -7.75055664 46.79447266 -6.41210938 46.83984375 C-4.27522123 46.90990566 -2.13760977 46.95729051 0 47 C0 51.62 0 56.24 0 61 C-3.48002435 61.10884524 -6.95658063 61.18772157 -10.4375 61.25 C-11.89833008 61.30027344 -11.89833008 61.30027344 -13.38867188 61.3515625 C-23.11740943 61.48171284 -30.08124159 58.59953373 -37.20703125 52 C-43.60199503 44.86661992 -45.38736614 37.58400984 -45.2734375 28.23046875 C-44.61011613 20.39380051 -41.67918408 13.41276989 -36.12890625 7.79296875 C-24.98882965 -1.5892242 -13.89684557 -0.66764205 0 0 Z " fill="#357BAE" transform="translate(654,141)"/>
<path d="M0 0 C4.62 0 9.24 0 14 0 C14 20.13 14 40.26 14 61 C9.38 61 4.76 61 0 61 C-0.33 54.73 -0.66 48.46 -1 42 C-2.98 46.95 -4.96 51.9 -7 57 C-7.66 57 -8.32 57 -9 57 C-17.21595673 42.31374016 -17.21595673 42.31374016 -15.07763672 33.85839844 C-13.28153691 28.50798713 -10.8834885 23.45260367 -8.4375 18.375 C-7.62905391 16.58068755 -6.82627005 14.78381269 -6.02929688 12.984375 C-4.08350015 8.62398539 -2.06460371 4.30532567 0 0 Z " fill="#283848" transform="translate(372,141)"/>
<path d="M0 0 C4.62 0 9.24 0 14 0 C14 7.92 14 15.84 14 24 C21.59 24 29.18 24 37 24 C37 28.62 37 33.24 37 38 C29.41 38 21.82 38 14 38 C14 45.59 14 53.18 14 61 C9.38 61 4.76 61 0 61 C0 40.87 0 20.74 0 0 Z " fill="#3888C2" transform="translate(889,141)"/>
<path d="M0 0 C4.62 0 9.24 0 14 0 C14.01458252 1.08941895 14.02916504 2.17883789 14.04418945 3.30126953 C14.10236072 7.36067785 14.17959182 11.41954237 14.26245117 15.47851562 C14.2956122 17.23200627 14.32367142 18.98560138 14.34643555 20.73925781 C14.3801447 23.26672698 14.43246692 25.79324638 14.48828125 28.3203125 C14.49467117 29.09867462 14.5010611 29.87703674 14.50764465 30.6789856 C14.63626859 35.48960573 15.39905318 38.80898777 18 43 C19.92022703 44.77409808 19.92022703 44.77409808 22 46 C22.99 46.66 23.98 47.32 25 48 C24.67 52.29 24.34 56.58 24 61 C16.24628674 60.71804679 10.74774196 57.97515349 5.390625 52.29296875 C0.27158611 45.6231622 -0.29547872 38.70601075 -0.1953125 30.56640625 C-0.1924826 29.68846909 -0.18965271 28.81053192 -0.18673706 27.9059906 C-0.17561598 25.12468355 -0.15052672 22.34370836 -0.125 19.5625 C-0.11495975 17.66732239 -0.10583573 15.77213968 -0.09765625 13.87695312 C-0.07570315 9.25117583 -0.0412296 4.62564402 0 0 Z " fill="#3A91D1" transform="translate(661,141)"/>
<path d="M0 0 C4.95 0 9.9 0 15 0 C15.54429451 20.13889704 15.54429451 20.13889704 9.90234375 26.28515625 C4.15933861 31.57992684 0.80720517 33.12982533 -7.07421875 33.09765625 C-8.09996758 33.09553383 -8.09996758 33.09553383 -9.1464386 33.09336853 C-11.32683722 33.08777876 -13.50713251 33.07522822 -15.6875 33.0625 C-17.16731622 33.05748367 -18.64713406 33.052921 -20.12695312 33.04882812 C-23.75137376 33.0386643 -27.37557144 33.0190871 -31 33 C-31 28.38 -31 23.76 -31 19 C-29.08574219 18.96261719 -27.17148437 18.92523438 -25.19921875 18.88671875 C-22.69529245 18.82107274 -20.19138709 18.75462494 -17.6875 18.6875 C-16.42486328 18.66494141 -15.16222656 18.64238281 -13.86132812 18.61914062 C-12.65283203 18.58369141 -11.44433594 18.54824219 -10.19921875 18.51171875 C-9.08377686 18.48553467 -7.96833496 18.45935059 -6.8190918 18.43237305 C-4.01440971 18.21659339 -4.01440971 18.21659339 -2.14453125 16.69140625 C-0.22749127 13.85837447 -0.42167217 10.6268824 -0.3125 7.3125 C-0.209375 4.899375 -0.10625 2.48625 0 0 Z " fill="#283B4B" transform="translate(807,169)"/>
<path d="M0 0 C4.62 0 9.24 0 14 0 C14.10901505 2.83439137 14.18777904 5.66450203 14.25 8.5 C14.30027344 9.68722656 14.30027344 9.68722656 14.3515625 10.8984375 C14.457226 17.34391086 13.08559356 22.7427534 8.55175781 27.52880859 C3.20143193 32.1703594 -0.34021183 33.25126816 -7.390625 33.1953125 C-8.09523865 33.1924826 -8.79985229 33.18965271 -9.52581787 33.18673706 C-11.7673876 33.17557801 -14.00855186 33.15048193 -16.25 33.125 C-17.77343171 33.11496464 -19.29686971 33.10583976 -20.8203125 33.09765625 C-24.54715536 33.07735754 -28.27312596 33.03820258 -32 33 C-32 28.38 -32 23.76 -32 19 C-29.02033203 18.94392578 -29.02033203 18.94392578 -25.98046875 18.88671875 C-24.05425387 18.83804184 -22.12804005 18.78926192 -20.2019043 18.73754883 C-18.2070937 18.68798681 -16.21192743 18.65348867 -14.21679688 18.61914062 C-12.96318359 18.58369141 -11.70957031 18.54824219 -10.41796875 18.51171875 C-9.26063232 18.48553467 -8.1032959 18.45935059 -6.91088867 18.43237305 C-4.02563508 18.22542208 -4.02563508 18.22542208 -2.13085938 16.69140625 C-0.23298852 13.85279457 -0.42072671 10.6242372 -0.3125 7.3125 C-0.27833984 6.61060547 -0.24417969 5.90871094 -0.20898438 5.18554688 C-0.12670053 3.45758613 -0.0616676 1.72881928 0 0 Z " fill="#293F52" transform="translate(754,169)"/>
<path d="M0 0 C1.02150398 0.00424484 1.02150398 0.00424484 2.06364441 0.00857544 C4.2236033 0.01970725 6.38313669 0.04479793 8.54296875 0.0703125 C10.01366586 0.08035139 11.48436951 0.08947565 12.95507812 0.09765625 C16.547168 0.1179162 20.13834607 0.15707583 23.73046875 0.1953125 C23.73046875 4.8153125 23.73046875 9.4353125 23.73046875 14.1953125 C21.74402344 14.23269531 19.75757813 14.27007812 17.7109375 14.30859375 C15.78472262 14.35727066 13.8585088 14.40605058 11.93237305 14.45776367 C9.93756245 14.50732569 7.94239618 14.54182383 5.94726562 14.57617188 C4.0668457 14.6293457 4.0668457 14.6293457 2.1484375 14.68359375 C0.99110107 14.70977783 -0.16623535 14.73596191 -1.35864258 14.76293945 C-4.24389617 14.96989042 -4.24389617 14.96989042 -6.13867188 16.50390625 C-8.03654273 19.34251793 -7.84880454 22.5710753 -7.95703125 25.8828125 C-7.99119141 26.58470703 -8.02535156 27.28660156 -8.06054688 28.00976562 C-8.14283072 29.73772637 -8.20786365 31.46649322 -8.26953125 33.1953125 C-12.88953125 33.1953125 -17.50953125 33.1953125 -22.26953125 33.1953125 C-22.40569044 30.19375877 -22.50417105 27.1984915 -22.58203125 24.1953125 C-22.64487305 22.93654297 -22.64487305 22.93654297 -22.70898438 21.65234375 C-22.83345608 15.22960355 -21.32762953 11.18150943 -17.26953125 6.1953125 C-11.91278321 1.10640186 -7.30044654 -0.06008598 0 0 Z " fill="#398ECB" transform="translate(798.26953125,140.8046875)"/>
<path d="M0 0 C1.0236264 0.00424484 1.0236264 0.00424484 2.06793213 0.00857544 C4.23817807 0.01973152 6.40800471 0.04482693 8.578125 0.0703125 C10.05337944 0.08034824 11.52864037 0.08947306 13.00390625 0.09765625 C16.61226897 0.11795075 20.21973004 0.15710597 23.828125 0.1953125 C23.828125 4.8153125 23.828125 9.4353125 23.828125 14.1953125 C20.95673828 14.25138672 20.95673828 14.25138672 18.02734375 14.30859375 C15.52341745 14.37423976 13.01951209 14.44068756 10.515625 14.5078125 C8.62166992 14.54165039 8.62166992 14.54165039 6.68945312 14.57617188 C5.48095703 14.61162109 4.27246094 14.64707031 3.02734375 14.68359375 C1.91190186 14.70977783 0.79645996 14.73596191 -0.3527832 14.76293945 C-3.44736791 15.23756572 -4.34519674 15.71887875 -6.171875 18.1953125 C-7.58822333 21.02800916 -7.5181755 23.66997688 -7.734375 26.8203125 C-7.87875 28.9240625 -8.023125 31.0278125 -8.171875 33.1953125 C-12.791875 33.1953125 -17.411875 33.1953125 -22.171875 33.1953125 C-22.71500439 13.09952514 -22.71500439 13.09952514 -17.33203125 7.16796875 C-11.61875 1.96537185 -7.85567752 -0.0643908 0 0 Z " fill="#3A93D3" transform="translate(744.171875,140.8046875)"/>
<path d="M0 0 C8.91 0 17.82 0 27 0 C27 4.62 27 9.24 27 14 C22.71 14 18.42 14 14 14 C14 21.59 14 29.18 14 37 C9.38 37 4.76 37 0 37 C0 24.79 0 12.58 0 0 Z " fill="#398DCB" transform="translate(555,165)"/>
<path d="M0 0 C15.18 0 30.36 0 46 0 C46 4.62 46 9.24 46 14 C30.82 14 15.64 14 0 14 C0 9.38 0 4.76 0 0 Z " fill="#252A31" transform="translate(934,141)"/>
<path d="M0 0 C4.62 0 9.24 0 14 0 C14 14.85 14 29.7 14 45 C9.38 45 4.76 45 0 45 C0 30.15 0 15.3 0 0 Z " fill="#306287" transform="translate(950,157)"/>
<path d="M0 0 C7.26 0 14.52 0 22 0 C22 4.62 22 9.24 22 14 C19.36 14 16.72 14 14 14 C14 20.27 14 26.54 14 33 C9.38 33 4.76 33 0 33 C0 22.11 0 11.22 0 0 Z " fill="#3B97D9" transform="translate(503,169)"/>
<path d="M0 0 C6.93 0 13.86 0 21 0 C20.67 4.62 20.34 9.24 20 14 C18.02 14 16.04 14 14 14 C14 20.27 14 26.54 14 33 C9.38 33 4.76 33 0 33 C0 22.11 0 11.22 0 0 Z " fill="#3B98DB" transform="translate(453,169)"/>
<path d="M0 0 C0 15.84 0 31.68 0 48 C-3 48 -3 48 -4.46484375 46.8203125 C-10.8894376 39.42436096 -13.77075872 31.86640473 -13.37890625 22.01953125 C-12.564638 15.53056883 -8.41583119 0 0 0 Z " fill="#3A92D3" transform="translate(622,147)"/>
<path d="M0 0 C2.31 0 4.62 0 7 0 C7 20.13 7 40.26 7 61 C4.69 61 2.38 61 0 61 C0 40.87 0 20.74 0 0 Z " fill="#24272D" transform="translate(596,141)"/>
<path d="M0 0 C9.24 0 18.48 0 28 0 C28 4.62 28 9.24 28 14 C18.76 14 9.52 14 0 14 C-0.94238698 11.17283905 -1.13465647 9.36823877 -1.125 6.4375 C-1.12757813 5.65246094 -1.13015625 4.86742187 -1.1328125 4.05859375 C-1 2 -1 2 0 0 Z " fill="#2C4E69" transform="translate(626,165)"/>
<path d="M0 0 C1.98 0 3.96 0 6 0 C6 20.13 6 40.26 6 61 C4.02 61 2.04 61 0 61 C0 40.87 0 20.74 0 0 Z " fill="#3DA1E8" transform="translate(889,141)"/>
<path d="M0 0 C8.58 0 17.16 0 26 0 C26 4.62 26 9.24 26 14 C17.42 14 8.84 14 0 14 C0 9.38 0 4.76 0 0 Z " fill="#2C4E6A" transform="translate(905,141)"/>
<path d="M0 0 C8.91 0 17.82 0 27 0 C26 13 26 13 25 14 C23.14630389 14.08737645 21.28932459 14.10698153 19.43359375 14.09765625 C18.30888672 14.09443359 17.18417969 14.09121094 16.02539062 14.08789062 C14.84138672 14.07951172 13.65738281 14.07113281 12.4375 14.0625 C11.24962891 14.05798828 10.06175781 14.05347656 8.83789062 14.04882812 C5.89190588 14.03699686 2.94594684 14.01906076 0 14 C0 9.38 0 4.76 0 0 Z " fill="#3476A7" transform="translate(453,141)"/>
<path d="M0 0 C7.59 0 15.18 0 23 0 C23 4.62 23 9.24 23 14 C15.41 14 7.82 14 0 14 C0 9.38 0 4.76 0 0 Z " fill="#24272D" transform="translate(799,141)"/>
<path d="M0 0 C7.26 0 14.52 0 22 0 C22 4.62 22 9.24 22 14 C14.74 14 7.48 14 0 14 C0 9.38 0 4.76 0 0 Z " fill="#33719F" transform="translate(722,188)"/>
<path d="M0 0 C4.62 0 9.24 0 14 0 C14 7.26 14 14.52 14 22 C9.38 22 4.76 22 0 22 C0 14.74 0 7.48 0 0 Z " fill="#398DCB" transform="translate(555,141)"/>
<path d="M0 0 C7.26 0 14.52 0 22 0 C22 4.62 22 9.24 22 14 C14.74 14 7.48 14 0 14 C0 9.38 0 4.76 0 0 Z " fill="#367CAF" transform="translate(503,141)"/>
<path d="M0 0 C6.93 0 13.86 0 21 0 C21 4.62 21 9.24 21 14 C14.07 14 7.14 14 0 14 C0 9.38 0 4.76 0 0 Z " fill="#31648B" transform="translate(905,165)"/>
<path d="M0 0 C6.93 0 13.86 0 21 0 C21 4.62 21 9.24 21 14 C14.07 14 7.14 14 0 14 C0 9.38 0 4.76 0 0 Z " fill="#3783BB" transform="translate(934,141)"/>
<path d="M0 0 C0 11.88 0 23.76 0 36 C-0.66 36 -1.32 36 -2 36 C-13.49641207 18.39320735 -13.49641207 18.39320735 -11.5703125 6.4296875 C-11.28800781 5.22699219 -11.28800781 5.22699219 -11 4 C-10.44570313 3.79503906 -9.89140625 3.59007812 -9.3203125 3.37890625 C-8.59585937 3.10949219 -7.87140625 2.84007812 -7.125 2.5625 C-6.40570313 2.29566406 -5.68640625 2.02882812 -4.9453125 1.75390625 C-0.41968912 0 -0.41968912 0 0 0 Z " fill="#2F5A7C" transform="translate(484,166)"/>
<path d="M0 0 C4.29 0 8.58 0 13 0 C13 4.62 13 9.24 13 14 C10.36 14 7.72 14 5 14 C5 20.27 5 26.54 5 33 C3.35 33 1.7 33 0 33 C0 22.11 0 11.22 0 0 Z " fill="#367DB1" transform="translate(512,169)"/>
<path d="M0 0 C6.27 0 12.54 0 19 0 C19 4.62 19 9.24 19 14 C12.73 14 6.46 14 0 14 C0 9.38 0 4.76 0 0 Z " fill="#2D4F6B" transform="translate(749,141)"/>
<path d="M0 0 C5.94 0 11.88 0 18 0 C18 4.62 18 9.24 18 14 C12.06 14 6.12 14 0 14 C0 9.38 0 4.76 0 0 Z " fill="#293F51" transform="translate(636,188)"/>
<path d="M0 0 C5.94 0 11.88 0 18 0 C18 4.62 18 9.24 18 14 C12.06 14 6.12 14 0 14 C0 9.38 0 4.76 0 0 Z " fill="#293F51" transform="translate(636,141)"/>
<path d="M0 0 C5.46575617 4.55479681 8.93003219 7.93821243 10 15 C10.45400641 20.90208327 9.58099486 24.75475238 7 30 C4.69 31.98 2.38 33.96 0 36 C0 24.12 0 12.24 0 0 Z " fill="#273442" transform="translate(538,144)"/>
<path d="M0 0 C3.96 0 7.92 0 12 0 C11.67 4.62 11.34 9.24 11 14 C9.02 14 7.04 14 5 14 C5 20.27 5 26.54 5 33 C3.35 33 1.7 33 0 33 C0 22.11 0 11.22 0 0 Z " fill="#3887C1" transform="translate(462,169)"/>
<path d="M0 0 C5.61 0 11.22 0 17 0 C17 4.62 17 9.24 17 14 C11.39 14 5.78 14 0 14 C0 9.38 0 4.76 0 0 Z " fill="#398ECB" transform="translate(776,188)"/>
<path d="M0 0 C1.65 0 3.3 0 5 0 C5 14.85 5 29.7 5 45 C3.35 45 1.7 45 0 45 C0 30.15 0 15.3 0 0 Z " fill="#3472A1" transform="translate(950,157)"/>
<path d="M0 0 C2.31 0 4.62 0 7 0 C6.67 12.21 6.34 24.42 6 37 C4.02 37 2.04 37 0 37 C0 24.79 0 12.58 0 0 Z " fill="#3DA2EB" transform="translate(555,165)"/>
<path d="M0 0 C1.8871875 0.061875 1.8871875 0.061875 3.8125 0.125 C3.8125 4.745 3.8125 9.365 3.8125 14.125 C1.8325 14.785 -0.1475 15.445 -2.1875 16.125 C-5.03364024 18.97114024 -4.64329076 21.92869142 -4.8125 25.75 C-4.85117187 26.45640625 -4.88984375 27.1628125 -4.9296875 27.890625 C-5.02397724 29.63498524 -5.10682891 31.37995691 -5.1875 33.125 C-5.8475 33.125 -6.5075 33.125 -7.1875 33.125 C-7.2615719 28.74678091 -7.31606375 24.36889218 -7.35229492 19.99023438 C-7.367396 18.50026091 -7.38787858 17.01033199 -7.41381836 15.52050781 C-7.45014584 13.3807477 -7.46721221 11.24157434 -7.48046875 9.1015625 C-7.4961792 7.81330566 -7.51188965 6.52504883 -7.52807617 5.19775391 C-7.41568604 4.18374512 -7.3032959 3.16973633 -7.1875 2.125 C-4.09861478 0.06574319 -3.47814073 -0.1140374 0 0 Z " fill="#367EB3" transform="translate(795.1875,140.875)"/>
<path d="M0 0 C1.134375 0.020625 2.26875 0.04125 3.4375 0.0625 C3.54651505 2.89689137 3.62527904 5.72700203 3.6875 8.5625 C3.73777344 9.74972656 3.73777344 9.74972656 3.7890625 10.9609375 C3.88374373 16.73649255 2.91128391 21.3390176 -0.5625 26.0625 C-2.70214844 27.78710938 -2.70214844 27.78710938 -4.5625 29.0625 C-4.58715881 25.09319011 -4.60534023 21.12390966 -4.61743164 17.15454102 C-4.62247057 15.80329614 -4.62930177 14.45205674 -4.63793945 13.10083008 C-4.65002419 11.16229566 -4.65519828 9.223722 -4.66015625 7.28515625 C-4.66539307 6.11734619 -4.67062988 4.94953613 -4.67602539 3.74633789 C-4.50310279 -0.34170118 -4.2325551 0.07425535 0 0 Z " fill="#252C34" transform="translate(764.5625,168.9375)"/>
<path d="M0 0 C0.99 0 1.98 0 3 0 C3 20.13 3 40.26 3 61 C2.01 61 1.02 61 0 61 C0 40.87 0 20.74 0 0 Z " fill="#3A92D1" transform="translate(895,141)"/>
<path d="M0 0 C4.29 0 8.58 0 13 0 C13 4.62 13 9.24 13 14 C8.71 14 4.42 14 0 14 C0 9.38 0 4.76 0 0 Z " fill="#262F39" transform="translate(641,165)"/>
<path d="M0 0 C4.29 0 8.58 0 13 0 C13 4.62 13 9.24 13 14 C8.71 14 4.42 14 0 14 C0 9.38 0 4.76 0 0 Z " fill="#31668D" transform="translate(569,165)"/>
<path d="M0 0 C3.96 0 7.92 0 12 0 C12 4.62 12 9.24 12 14 C8.04 14 4.08 14 0 14 C0 9.38 0 4.76 0 0 Z " fill="#2D4F6B" transform="translate(955,141)"/>
<path d="M0 0 C0.02684312 2.81256281 0.04676188 5.62487241 0.0625 8.4375 C0.07087891 9.23994141 0.07925781 10.04238281 0.08789062 10.86914062 C0.0965143 12.91295221 0.0522815 14.95683902 0 17 C-1 18 -1 18 -3.28515625 18.09765625 C-5.85677083 18.06510417 -8.42838542 18.03255208 -11 18 C-11 13.38 -11 8.76 -11 4 C-9.906875 3.71125 -8.81375 3.4225 -7.6875 3.125 C-5.48441433 2.45287217 -2.08910496 0 0 0 Z " fill="#2C4F6A" transform="translate(755,184)"/>
<path d="M0 0 C2.31 0 4.62 0 7 0 C7.63927577 17.97075209 7.63927577 17.97075209 4 24 C2.68 24.99 1.36 25.98 0 27 C0 18.09 0 9.18 0 0 Z " fill="#25282E" transform="translate(815,169)"/>
<path d="M0 0 C3.63 0 7.26 0 11 0 C11 4.62 11 9.24 11 14 C7.37 14.66 3.74 15.32 0 16 C0 10.72 0 5.44 0 0 Z " fill="#33719F" transform="translate(738,141)"/>
<path d="M0 0 C0 4.95 0 9.9 0 15 C-3.63 15 -7.26 15 -11 15 C-11 10.38 -11 5.76 -11 1 C-8.5559375 0.7525 -8.5559375 0.7525 -6.0625 0.5 C-4.68771484 0.36078125 -4.68771484 0.36078125 -3.28515625 0.21875 C-1 0 -1 0 0 0 Z " fill="#326C97" transform="translate(804,187)"/>
<path d="M0 0 C3.63 0 7.26 0 11 0 C11 4.62 11 9.24 11 14 C7.37 14 3.74 14 0 14 C0 9.38 0 4.76 0 0 Z " fill="#3A93D3" transform="translate(722,188)"/>
<path d="M0 0 C0.66 0 1.32 0 2 0 C2 7.92 2 15.84 2 24 C2.66 24 3.32 24 4 24 C4 28.62 4 33.24 4 38 C3.34 38 2.68 38 2 38 C2 45.59 2 53.18 2 61 C1.34 61 0.68 61 0 61 C0 40.87 0 20.74 0 0 Z " fill="#367EB2" transform="translate(901,141)"/>
<path d="M0 0 C2.97 1.65 5.94 3.3 9 5 C9 9.62 9 14.24 9 19 C5.53058454 18.54177532 2.32604951 18.10868317 -1 17 C-0.67 11.39 -0.34 5.78 0 0 Z " fill="#305E81" transform="translate(627,183)"/>
<path d="M0 0 C0 4.95 0 9.9 0 15 C-1.98 15.99 -3.96 16.98 -6 18 C-6.99 18.66 -7.98 19.32 -9 20 C-9.13487595 17.22754986 -9.23400807 14.46162912 -9.3125 11.6875 C-9.35439453 10.90181641 -9.39628906 10.11613281 -9.43945312 9.30664062 C-9.48634519 7.10271379 -9.46478984 5.15587021 -9 3 C-5.80298686 0.12213791 -4.34879185 0 0 0 Z " fill="#305E81" transform="translate(636,141)"/>
<path d="M0 0 C3.3 0 6.6 0 10 0 C10 4.62 10 9.24 10 14 C6.7 14 3.4 14 0 14 C0 9.38 0 4.76 0 0 Z " fill="#3B95D7" transform="translate(934,141)"/>
<path d="M0 0 C3.3 0 6.6 0 10 0 C10 4.62 10 9.24 10 14 C6.7 14 3.4 14 0 14 C0 9.38 0 4.76 0 0 Z " fill="#2C4C65" transform="translate(799,141)"/>
<path d="M0 0 C0.33 0 0.66 0 1 0 C1 8.58 1 17.16 1 26 C-0.98 26 -2.96 26 -5 26 C-5.10845027 22.95736733 -5.18752063 19.91863796 -5.25 16.875 C-5.28351562 16.0190625 -5.31703125 15.163125 -5.3515625 14.28125 C-5.44060987 8.49317119 -4.73787458 5.46547612 -1 1 C-0.67 0.67 -0.34 0.34 0 0 Z " fill="#3D9FE7" transform="translate(781,148)"/>
<path d="M0 0 C0.02684679 2.64590014 0.04676357 5.29153096 0.0625 7.9375 C0.07087891 8.69224609 0.07925781 9.44699219 0.08789062 10.22460938 C0.09652441 12.14994313 0.05224333 14.07535581 0 16 C-1 17 -1 17 -2.84765625 17.09765625 C-4.8984375 17.06510417 -6.94921875 17.03255208 -9 17 C-9 12.38 -9 7.76 -9 3 C-2.25 0 -2.25 0 0 0 Z " fill="#2D516D" transform="translate(534,166)"/>
<path d="M0 0 C0.99 0 1.98 0 3 0 C3 14.85 3 29.7 3 45 C2.01 45 1.02 45 0 45 C0 30.15 0 15.3 0 0 Z " fill="#2E5472" transform="translate(961,157)"/>
<path d="M0 0 C7 0 7 0 9 1 C9 6.28 9 11.56 9 17 C8.34 17.33 7.68 17.66 7 18 C6.5875 17.525625 6.175 17.05125 5.75 16.5625 C3.86673565 14.63715751 3.86673565 14.63715751 0 14 C0 9.38 0 4.76 0 0 Z " fill="#2D516D" transform="translate(525,141)"/>
<path d="M0 0 C2.31 0 4.62 0 7 0 C6.67 7.26 6.34 14.52 6 22 C4.02 22 2.04 22 0 22 C0 14.74 0 7.48 0 0 Z " fill="#3DA2EB" transform="translate(555,141)"/>
<path d="M0 0 C1.32 0 2.64 0 4 0 C4 10.89 4 21.78 4 33 C2.68 33 1.36 33 0 33 C0 22.11 0 11.22 0 0 Z " fill="#3888C3" transform="translate(512,169)"/>
<path d="M0 0 C1.32 0 2.64 0 4 0 C4 10.89 4 21.78 4 33 C2.68 33 1.36 33 0 33 C0 22.11 0 11.22 0 0 Z " fill="#3EA5EF" transform="translate(503,169)"/>
<path d="M0 0 C0.02689449 2.95839355 0.04678741 5.91654427 0.0625 8.875 C0.07087891 9.71675781 0.07925781 10.55851563 0.08789062 11.42578125 C0.09111328 12.23144531 0.09433594 13.03710938 0.09765625 13.8671875 C0.10289307 14.61081543 0.10812988 15.35444336 0.11352539 16.12060547 C0 18 0 18 -1 20 C-1.22950319 22.204364 -1.41075933 24.41392173 -1.5625 26.625 C-1.64628906 27.81351563 -1.73007812 29.00203125 -1.81640625 30.2265625 C-1.87699219 31.14179688 -1.93757812 32.05703125 -2 33 C-2.99 33 -3.98 33 -5 33 C-5.0989211 28.78253675 -5.17149012 24.56568879 -5.21972656 20.34741211 C-5.23983525 18.91272214 -5.26712673 17.47811407 -5.30175781 16.04370117 C-5.3503146 13.98075161 -5.37297406 11.91888569 -5.390625 9.85546875 C-5.41157227 8.61434326 -5.43251953 7.37321777 -5.45410156 6.09448242 C-5 3 -5 3 -3.03808594 1.0715332 C-1 0 -1 0 0 0 Z " fill="#3783BA" transform="translate(738,141)"/>
<path d="M0 0 C2.97 0 5.94 0 9 0 C9 4.62 9 9.24 9 14 C6.03 14 3.06 14 0 14 C0 9.38 0 4.76 0 0 Z " fill="#262D36" transform="translate(922,141)"/>
<path d="M0 0 C2.97 0 5.94 0 9 0 C9 4.62 9 9.24 9 14 C6.03 14 3.06 14 0 14 C0 9.38 0 4.76 0 0 Z " fill="#3B97D9" transform="translate(503,141)"/>
<path d="M0 0 C2.97 0 5.94 0 9 0 C9 4.62 9 9.24 9 14 C6.03 14 3.06 14 0 14 C0 9.38 0 4.76 0 0 Z " fill="#3B98DB" transform="translate(453,141)"/>
<path d="M0 0 C0.99 0.33 1.98 0.66 3 1 C2.67 11.23 2.34 21.46 2 32 C-0.475 32.495 -0.475 32.495 -3 33 C-3.05397335 30.5622037 -3.09365616 28.12560315 -3.125 25.6875 C-3.14175781 24.99720703 -3.15851562 24.30691406 -3.17578125 23.59570312 C-3.21217794 19.82864604 -3.14378864 18.21568296 -1 15 C-0.70008931 12.41114829 -0.49134775 9.90850918 -0.375 7.3125 C-0.33632813 6.61060547 -0.29765625 5.90871094 -0.2578125 5.18554688 C-0.1637666 3.45745345 -0.0808032 1.72876325 0 0 Z " fill="#2B4A63" transform="translate(807,169)"/>
<path d="M0 0 C2.64 0 5.28 0 8 0 C8 4.62 8 9.24 8 14 C5.36 14 2.72 14 0 14 C0 9.38 0 4.76 0 0 Z " fill="#262F39" transform="translate(646,188)"/>
<path d="M0 0 C2.64 0 5.28 0 8 0 C8 4.62 8 9.24 8 14 C5.36 14 2.72 14 0 14 C0 9.38 0 4.76 0 0 Z " fill="#273542" transform="translate(918,165)"/>
<path d="M0 0 C2.64 0 5.28 0 8 0 C8 4.62 8 9.24 8 14 C5.36 14 2.72 14 0 14 C0 9.38 0 4.76 0 0 Z " fill="#262F39" transform="translate(760,141)"/>
<path d="M0 0 C2.64 0 5.28 0 8 0 C8 4.62 8 9.24 8 14 C5.36 14 2.72 14 0 14 C0 9.38 0 4.76 0 0 Z " fill="#262F39" transform="translate(646,141)"/>
<path d="M0 0 C0.33 0 0.66 0 1 0 C1 7.92 1 15.84 1 24 C-0.65 24 -2.3 24 -4 24 C-4.55839416 8.11678832 -4.55839416 8.11678832 -1 1 C-0.67 0.67 -0.34 0.34 0 0 Z " fill="#3DA3EC" transform="translate(726,150)"/>
<path d="M0 0 C1.32 0.33 2.64 0.66 4 1 C3.67 11.56 3.34 22.12 3 33 C2.01 33 1.02 33 0 33 C0 22.11 0 11.22 0 0 Z " fill="#3EA5EF" transform="translate(453,169)"/>
<path d="M0 0 C2.31 0 4.62 0 7 0 C7 4.62 7 9.24 7 14 C4.69 14 2.38 14 0 14 C0 9.38 0 4.76 0 0 Z " fill="#2D516D" transform="translate(582,165)"/>
<path d="M0 0 C2.31 0 4.62 0 7 0 C7 4.62 7 9.24 7 14 C4.69 14 2.38 14 0 14 C0 9.38 0 4.76 0 0 Z " fill="#30648B" transform="translate(905,141)"/>
<path d="M0 0 C3.94477066 2.62984711 4.02667201 4.43284559 5 9 C5.52822356 14.81045913 4.34635596 18.76582132 2 24 C1.34 24.33 0.68 24.66 0 25 C0 16.75 0 8.5 0 0 Z " fill="#24262B" transform="translate(543,150)"/>
<path d="M0 0 C2.31 0 4.62 0 7 0 C6.67 4.62 6.34 9.24 6 14 C4.02 14 2.04 14 0 14 C0 9.38 0 4.76 0 0 Z " fill="#3476A7" transform="translate(467,169)"/>
<path d="M0 0 C1.98 0 3.96 0 6 0 C6 4.62 6 9.24 6 14 C4.02 14.33 2.04 14.66 0 15 C0 10.05 0 5.1 0 0 Z " fill="#326C97" transform="translate(793,141)"/>
<path d="M0 0 C1.98 0 3.96 0 6 0 C6 4.62 6 9.24 6 14 C4.02 14 2.04 14 0 14 C0 9.38 0 4.76 0 0 Z " fill="#3DA0E8" transform="translate(776,188)"/>
<path d="M0 0 C1.98 0 3.96 0 6 0 C6 4.62 6 9.24 6 14 C4.02 14 2.04 14 0 14 C0 9.38 0 4.76 0 0 Z " fill="#2C4E6A" transform="translate(912,165)"/>
<path d="M0 0 C1.98 0 3.96 0 6 0 C6 4.62 6 9.24 6 14 C4.02 14 2.04 14 0 14 C0 9.38 0 4.76 0 0 Z " fill="#3579AB" transform="translate(569,165)"/>
<path d="M0 0 C1.98 0 3.96 0 6 0 C6 4.62 6 9.24 6 14 C4.02 14 2.04 14 0 14 C0 9.38 0 4.76 0 0 Z " fill="#293D4F" transform="translate(967,141)"/>
<path d="M0 0 C1.98 0 3.96 0 6 0 C6 4.62 6 9.24 6 14 C4.02 14 2.04 14 0 14 C0 9.38 0 4.76 0 0 Z " fill="#306287" transform="translate(955,141)"/>
<path d="M0 0 C1.98 0 3.96 0 6 0 C6 4.62 6 9.24 6 14 C4.02 14 2.04 14 0 14 C0 9.38 0 4.76 0 0 Z " fill="#283B4B" transform="translate(809,141)"/>
<path d="M0 0 C2.31 0 4.62 0 7 0 C6.85970581 2.1462026 6.71261836 4.29196218 6.5625 6.4375 C6.48128906 7.63246094 6.40007812 8.82742187 6.31640625 10.05859375 C6 13 6 13 5 14 C3.35 14 1.7 14 0 14 C0 9.38 0 4.76 0 0 Z " fill="#31648B" transform="translate(473,141)"/>
<path d="M0 0 C1.65 0 3.3 0 5 0 C5 4.62 5 9.24 5 14 C3.35 14 1.7 14 0 14 C-0.94238698 11.17283905 -1.13465647 9.36823877 -1.125 6.4375 C-1.12757813 5.65246094 -1.13015625 4.86742187 -1.1328125 4.05859375 C-1 2 -1 2 0 0 Z " fill="#336F9B" transform="translate(626,165)"/>
<path d="M0 0 C0.66 0 1.32 0 2 0 C3.7265625 2.5546875 3.7265625 2.5546875 5.625 5.875 C6.25664062 6.96554688 6.88828125 8.05609375 7.5390625 9.1796875 C9 12 9 12 9 14 C6.03 14 3.06 14 0 14 C0 9.38 0 4.76 0 0 Z " fill="#26303A" transform="translate(490,188)"/>
<path d="M0 0 C0 4.95 0 9.9 0 15 C-1.65 15 -3.3 15 -5 15 C-5 10.38 -5 5.76 -5 1 C-1 0 -1 0 0 0 Z " fill="#2F5B7D" transform="translate(804,187)"/>
<path d="M0 0 C1.65 0 3.3 0 5 0 C5 4.62 5 9.24 5 14 C3.35 14 1.7 14 0 14 C0 9.38 0 4.76 0 0 Z " fill="#367DB1" transform="translate(788,188)"/>
<path d="M0 0 C1.65 0 3.3 0 5 0 C5 4.62 5 9.24 5 14 C3.35 14 1.7 14 0 14 C0 9.38 0 4.76 0 0 Z " fill="#306185" transform="translate(744,188)"/>
<path d="M0 0 C1.65 0 3.3 0 5 0 C5 4.62 5 9.24 5 14 C3.35 14 1.7 14 0 14 C0 9.38 0 4.76 0 0 Z " fill="#3782B9" transform="translate(733,188)"/>
<path d="M0 0 C1.65 0 3.3 0 5 0 C5 4.62 5 9.24 5 14 C3.35 14 1.7 14 0 14 C0 9.38 0 4.76 0 0 Z " fill="#3EA3ED" transform="translate(722,188)"/>
<path d="M0 0 C1.65 0 3.3 0 5 0 C5 4.62 5 9.24 5 14 C3.35 14 1.7 14 0 14 C0 9.38 0 4.76 0 0 Z " fill="#2C4E69" transform="translate(636,188)"/>
<path d="M0 0 C1.65 0 3.3 0 5 0 C5 4.62 5 9.24 5 14 C3.35 14 1.7 14 0 14 C0 9.38 0 4.76 0 0 Z " fill="#336E99" transform="translate(520,169)"/>
<path d="M0 0 C1.65 0 3.3 0 5 0 C5 4.62 5 9.24 5 14 C3.35 14 1.7 14 0 14 C0 9.38 0 4.76 0 0 Z " fill="#293F51" transform="translate(641,165)"/>
<path d="M0 0 C1.65 0 3.3 0 5 0 C5 4.62 5 9.24 5 14 C3.35 14 1.7 14 0 14 C0 9.38 0 4.76 0 0 Z " fill="#305E81" transform="translate(631,165)"/>
<path d="M0 0 C1.65 0 3.3 0 5 0 C5 4.62 5 9.24 5 14 C3.35 14 1.7 14 0 14 C0 9.38 0 4.76 0 0 Z " fill="#3473A1" transform="translate(950,141)"/>
<path d="M0 0 C1.65 0 3.3 0 5 0 C5 4.62 5 9.24 5 14 C3.35 14 1.7 14 0 14 C0 9.38 0 4.76 0 0 Z " fill="#2F5B7D" transform="translate(799,141)"/>
<path d="M0 0 C1.65 0 3.3 0 5 0 C5 4.62 5 9.24 5 14 C3.35 14 1.7 14 0 14 C0 9.38 0 4.76 0 0 Z " fill="#293F51" transform="translate(755,141)"/>
<path d="M0 0 C1.65 0 3.3 0 5 0 C5 4.62 5 9.24 5 14 C3.35 14 1.7 14 0 14 C0 9.38 0 4.76 0 0 Z " fill="#306185" transform="translate(744,141)"/>
<path d="M0 0 C1.65 0 3.3 0 5 0 C5 4.62 5 9.24 5 14 C3.35 14 1.7 14 0 14 C0 9.38 0 4.76 0 0 Z " fill="#2C4E69" transform="translate(636,141)"/>
<path d="M0 0 C1.65 0 3.3 0 5 0 C5 4.62 5 9.24 5 14 C3.35 14 1.7 14 0 14 C0 9.38 0 4.76 0 0 Z " fill="#336E99" transform="translate(520,141)"/>
<path d="M0 0 C1.65 0 3.3 0 5 0 C5 4.62 5 9.24 5 14 C3.35 14 1.7 14 0 14 C0 9.38 0 4.76 0 0 Z " fill="#3887C1" transform="translate(462,141)"/>
<path d="M0 0 C1.65 0.99 3.3 1.98 5 3 C4.67 7.95 4.34 12.9 4 18 C2.35 17.67 0.7 17.34 -1 17 C-0.67 11.39 -0.34 5.78 0 0 Z " fill="#326C97" transform="translate(627,183)"/>
<path d="M0 0 C0.66 0 1.32 0 2 0 C2.10792837 2.60527105 2.18724878 5.20608311 2.25 7.8125 C2.28351562 8.55048828 2.31703125 9.28847656 2.3515625 10.04882812 C2.390625 12.20703125 2.390625 12.20703125 2 16 C-0.015625 18.01171875 -0.015625 18.01171875 -2 19 C-2.05380578 16.20807795 -2.09357669 13.4171859 -2.125 10.625 C-2.14175781 9.8309375 -2.15851562 9.036875 -2.17578125 8.21875 C-2.19335473 6.14507985 -2.10335168 4.07116759 -2 2 C-1.34 1.34 -0.68 0.68 0 0 Z " fill="#326C97" transform="translate(629,142)"/>
<path d="M0 0 C1.65 0 3.3 0 5 0 C4.67 4.62 4.34 9.24 4 14 C2.68 14 1.36 14 0 14 C0 9.38 0 4.76 0 0 Z " fill="#3EA4EE" transform="translate(934,141)"/>
<path d="M0 0 C1.32 0 2.64 0 4 0 C4 4.62 4 9.24 4 14 C2.68 14 1.36 14 0 14 C0 9.38 0 4.76 0 0 Z " fill="#305F83" transform="translate(525,169)"/>
<path d="M0 0 C1.32 0 2.64 0 4 0 C4 4.62 4 9.24 4 14 C2.68 14 1.36 14 0 14 C0 9.38 0 4.76 0 0 Z " fill="#2A4357" transform="translate(918,165)"/>
<path d="M0 0 C1.32 0 2.64 0 4 0 C4 4.62 4 9.24 4 14 C2.68 14 1.36 14 0 14 C0 9.38 0 4.76 0 0 Z " fill="#2A4357" transform="translate(918,141)"/>
<path d="M0 0 C1.32 0 2.64 0 4 0 C4 4.62 4 9.24 4 14 C2.68 14 1.36 14 0 14 C0 9.38 0 4.76 0 0 Z " fill="#305F83" transform="translate(525,141)"/>
<path d="M0 0 C1.32 0 2.64 0 4 0 C4 4.62 4 9.24 4 14 C2.68 14 1.36 14 0 14 C0 9.38 0 4.76 0 0 Z " fill="#3888C3" transform="translate(512,141)"/>
<path d="M0 0 C1.32 0 2.64 0 4 0 C4 4.62 4 9.24 4 14 C2.68 14 1.36 14 0 14 C0 9.38 0 4.76 0 0 Z " fill="#3EA5EF" transform="translate(503,141)"/>
<path d="M0 0 C1.32 0.33 2.64 0.66 4 1 C3.67 5.29 3.34 9.58 3 14 C2.01 14 1.02 14 0 14 C0 9.38 0 4.76 0 0 Z " fill="#336F9C" transform="translate(905,141)"/>
<path d="M0 0 C1.32 0.33 2.64 0.66 4 1 C3.67 5.29 3.34 9.58 3 14 C2.01 14 1.02 14 0 14 C0 9.38 0 4.76 0 0 Z " fill="#3EA5EF" transform="translate(453,141)"/>
<path d="M0 0 C0.99 0 1.98 0 3 0 C3 4.62 3 9.24 3 14 C2.01 14 1.02 14 0 14 C0 9.38 0 4.76 0 0 Z " fill="#232326" transform="translate(651,188)"/>
<path d="M0 0 C0.99 0 1.98 0 3 0 C3 4.62 3 9.24 3 14 C2.01 14 1.02 14 0 14 C0 9.38 0 4.76 0 0 Z " fill="#2F5979" transform="translate(912,165)"/>
<path d="M0 0 C0.99 0 1.98 0 3 0 C3 4.62 3 9.24 3 14 C2.01 14 1.02 14 0 14 C0 9.38 0 4.76 0 0 Z " fill="#33709D" transform="translate(905,165)"/>
<path d="M0 0 C0.99 0 1.98 0 3 0 C3 4.62 3 9.24 3 14 C2.01 14 1.02 14 0 14 C0 9.38 0 4.76 0 0 Z " fill="#232326" transform="translate(651,165)"/>
<path d="M0 0 C0.99 0 1.98 0 3 0 C3 4.62 3 9.24 3 14 C2.01 14 1.02 14 0 14 C0 9.38 0 4.76 0 0 Z " fill="#242326" transform="translate(928,141)"/>
<path d="M0 0 C0.99 0 1.98 0 3 0 C3 4.62 3 9.24 3 14 C2.01 14 1.02 14 0 14 C0 9.38 0 4.76 0 0 Z " fill="#283745" transform="translate(922,141)"/>
<path d="M0 0 C0.99 0 1.98 0 3 0 C3 4.62 3 9.24 3 14 C2.01 14 1.02 14 0 14 C0 9.38 0 4.76 0 0 Z " fill="#2F5979" transform="translate(912,141)"/>
<path d="M0 0 C0.99 0 1.98 0 3 0 C3 4.62 3 9.24 3 14 C2.01 14 1.02 14 0 14 C0 9.38 0 4.76 0 0 Z " fill="#242326" transform="translate(765,141)"/>
<path d="M0 0 C0.99 0 1.98 0 3 0 C3 4.62 3 9.24 3 14 C2.01 14 1.02 14 0 14 C0 9.38 0 4.76 0 0 Z " fill="#232326" transform="translate(651,141)"/>
</svg>
